# xmcd CD database file
#
# Track frame offsets:
#	150
#	17980
#	36940
#	54000
#	74052
#	91872
#	116110
#	134390
#	154085
#	176862
#	194227
#	211447
#	235000
#	256347
#	279057
#
# Disc length: 3989 seconds
#
# Revision: 1
# Processed by: cddbd v1.4PL0 Copyright (c) Steve Scherf et al.
# Submitted via: CDex 1.40Beta8
#
DISCID=db0f930f
DTITLE=Cool - Cool 7th
DYEAR=2001
DGENRE=Korea Pop
TTITLE0=I Love You
TTITLE1=Tell me why
TTITLE2=White Christmas
TTITLE3=Aruha
TTITLE4=Heeojineun Nal
TTITLE5=Geuraeseo Haengbogamnida
TTITLE6=Nawibaraem
TTITLE7=Soweon
TTITLE8=Love Again
TTITLE9=Haneullo Sseuneun Peonji
TTITLE10=Amagudaen
TTITLE11=Wedingjeonya
TTITLE12=Geunyeowi Georonsik
TTITLE13=Hanjangwi Chueok
TTITLE14=Uri Ireoke Saro Seuchyeo Bonaemeon
EXTD=YEAR: 2001
EXTT0=
EXTT1=
EXTT2=
EXTT3=
EXTT4=
EXTT5=
EXTT6=
EXTT7=
EXTT8=
EXTT9=
EXTT10=
EXTT11=
EXTT12=
EXTT13=
EXTT14=
PLAYORDER=
